<?xml version="1.0" encoding="UTF-8"?><svg id="a" xmlns="http://www.w3.org/2000/svg" viewBox="0 0 218 175"><defs><style>.b{fill:#ee283b;}.c{fill:#fff;}.d{fill:#666;}.e{fill:#aba8a3;}.f{fill:#d9d6d3;}</style></defs><rect class="c" x="55" y="63" width="114" height="107"/><rect class="f" x=".07" y="17.54" width="217.93" height="157.81" rx="45.59" ry="45.59"/><path class="b" d="M109.76,71.51c-61.97,.33-61.93,94.45,0,94.78,61.97-.33,61.93-94.45,0-94.78Z"/><rect class="c" x="106.85" y="86.12" width="6.43" height="67.76" rx="2.04" ry="2.04"/><rect class="c" x="106.85" y="86.12" width="6.43" height="67.76" rx="2.04" ry="2.04" transform="translate(-9.93 230.06) rotate(-90)"/><path class="d" d="M.07,62.63v-20.07C.07,28.74,14.01,17.54,31.21,17.54H186.86c17.2,0,31.14,11.2,31.14,25.02v19.98L.07,62.63Z"/><rect class="e" x="23.98" y="-.22" width="8.2" height="46.46" rx="4.1" ry="4.1"/><rect class="e" x="64.97" y="-.22" width="8.2" height="46.46" rx="4.1" ry="4.1"/><rect class="e" x="105.96" y="-.22" width="8.2" height="46.46" rx="4.1" ry="4.1"/><rect class="e" x="147.25" y="-.22" width="8.2" height="46.46" rx="4.1" ry="4.1"/><rect class="e" x="187.26" y="-.22" width="8.2" height="46.46" rx="4.1" ry="4.1"/></svg>