<svg id="Ebene_1" data-name="Ebene 1" xmlns="http://www.w3.org/2000/svg" viewBox="0 0 243 262">
  <defs>
    <style>
      .cls-1 {
        fill: #dad7d4;
      }

      .cls-2, .cls-4 {
        fill: #e72e3e;
      }

      .cls-3 {
        fill: #fff;
      }

      .cls-4 {
        font-size: 48.41px;
        font-family: Raleway-Bold, Raleway;
        font-weight: 700;
      }

      .cls-5 {
        letter-spacing: -0.01em;
      }

      .cls-6, .cls-7 {
        fill: #010101;
        font-family: Raleway-Regular, Raleway;
        font-weight: 400;
      }

      .cls-7 {
        letter-spacing: -0.03em;
      }

      .cls-8 {
        fill: #676767;
      }

      .cls-9 {
        fill: #aca8a3;
      }
    </style>
  </defs>
  <rect class="cls-1" x="11.33" y="31.36" width="220.6" height="159.74" rx="45.59"/>
  <path class="cls-2" d="M122.36,86c-62.72.33-62.69,95.61,0,95.94C185.09,181.6,185.05,86.32,122.36,86Z"/>
  <rect class="cls-3" x="119.42" y="100.78" width="6.5" height="68.59" rx="2.04"/>
  <rect class="cls-3" x="119.42" y="100.78" width="6.5" height="68.59" rx="2.04" transform="translate(-12.4 257.74) rotate(-90)"/>
  <text class="cls-4" transform="translate(13.58 249.67)"><tspan class="cls-5">M</tspan><tspan x="41.53" y="0">edi</tspan><tspan class="cls-6" x="114.1" y="0">Ca</tspan><tspan class="cls-7" x="173.69" y="0">r</tspan><tspan class="cls-6" x="189.42" y="0">e</tspan></text>
  <path class="cls-8" d="M11.33,77V56.69c0-14,14.11-25.33,31.53-25.33H200.4c17.42,0,31.53,11.34,31.53,25.33V76.91Z"/>
  <rect class="cls-9" x="35.53" y="13.38" width="8.3" height="47.02" rx="4.15"/>
  <rect class="cls-9" x="77.03" y="13.38" width="8.3" height="47.02" rx="4.15"/>
  <rect class="cls-9" x="118.52" y="13.38" width="8.3" height="47.02" rx="4.15"/>
  <rect class="cls-9" x="160.32" y="13.38" width="8.3" height="47.02" rx="4.15"/>
  <rect class="cls-9" x="200.81" y="13.38" width="8.3" height="47.02" rx="4.15"/>
</svg>
